<svg xmlns="http://www.w3.org/2000/svg" viewBox="0 0 261.43 88.42"><g id="Layer_2" data-name="Layer 2"><g id="Layer_1-2" data-name="Layer 1"><path d="M0,60.87C0,44.73,11.1,33.31,26.81,33.31c16.75,0,26.7,10.27,26.7,27.56,0,16.13-11.1,27.55-26.7,27.55C10,88.42,0,78.15,0,60.87Zm36-.32c-.83-17.49-4.18-26.08-10.15-25.66-6.39.41-9.32,9.11-8.38,26.5.94,17.91,4.19,25.87,10.05,25.46C33.93,86.43,36.86,77.73,36,60.55Z" fill="#212121"/><path d="M115,86.32v1.57H88V86.32c1,0,2.62-1.25,4-3.45l1.25-1.79V49.24c0-5.14,0-13-5.65-13-4.71,0-8.59,6.39-9.32,14.45V81.08l1.26,1.79c1.36,2.2,2.83,3.45,4,3.45v1.57h-27V86.32c1,0,2.62-1.25,4-3.45l1.25-1.79V40.54H58.54v-2c7,0,12.15-2.09,18.12-7.23h1.57V41.49c2.72-5.66,8.27-8.7,14.45-8.7,10.47,0,16.76,5.76,17.07,16.45V81.08L111,82.87C112.37,85.07,113.84,86.32,115,86.32Z" fill="#212121"/><path d="M120,81.19v-72h-3v-2c7,0,12.15-2.1,18.12-7.23h1.57V37.29c2.41-2.82,6-4.39,10.47-4.39,16.23,0,26.5,11.41,26.5,27.76s-9.95,27.76-28.28,27.76C127.35,88.42,120,81.19,120,81.19Zm36.13-20.64c-1-17.49-4.51-26.08-10.79-25.66-3.56.21-6.81,2.82-8.79,8V80.67s1.78,6.28,9.84,6C153.84,86.32,157.09,77.73,156.15,60.55Z" fill="#212121"/><path d="M227.34,56.26a1.18,1.18,0,0,1-1.15,1.25h-28.9v3.15c0,12.46,3.24,20.84,8.69,22.52s13.3-.94,17.49-8.17l1.46,1.36c-4.71,9.32-14.45,13.51-25.44,11.42-12.36-2.72-21-12.78-21-27.13,0-16.24,10.89-27.76,26.18-27.76C217.08,32.9,227.34,41.38,227.34,56.26Zm-15.5-2.83V51.75c-.63-13-2.62-17.28-7.12-17.28-5.13,0-7,6.91-7.33,21.05h12.36A2.1,2.1,0,0,0,211.84,53.43Z" fill="#212121"/><path d="M242.26,29.36a5.39,5.39,0,0,0-7-8.18,5.13,5.13,0,0,0-.66.56,5.39,5.39,0,0,0,7,8.18A5.13,5.13,0,0,0,242.26,29.36ZM235.08,28a4.13,4.13,0,0,1,.42-5.36,4.24,4.24,0,0,1,.52-.43,4.15,4.15,0,0,1,5.36,6.29h0a3.58,3.58,0,0,1-.51.44A4.16,4.16,0,0,1,235.08,28Z" fill="#212121"/><circle cx="225.19" cy="25.55" r="4.47" fill="#212121"/><circle cx="238.44" cy="38.81" r="4.47" fill="#212121"/><path d="M253.85,23.79h-1.12a.13.13,0,0,1-.13-.13v-.38a.13.13,0,0,1,.13-.13h3a.13.13,0,0,1,.14.13v.38a.13.13,0,0,1-.14.13h-1.11v4a.14.14,0,0,1-.13.13H254a.13.13,0,0,1-.13-.13Z" fill="#212121"/><path d="M257,23.18a.14.14,0,0,1,.12-.1h.11a.12.12,0,0,1,.12.08l1.44,3.5h0l1.43-3.5a.12.12,0,0,1,.12-.08h.11a.14.14,0,0,1,.12.1l.84,4.62a.11.11,0,0,1-.12.15h-.45a.14.14,0,0,1-.13-.09l-.5-3.07h0L259,28s0,.07-.12.07h-.12a.14.14,0,0,1-.12-.07l-1.24-3.16h0l-.49,3.07a.13.13,0,0,1-.12.09h-.45a.12.12,0,0,1-.13-.15Z" fill="#212121"/></g></g></svg>